<?xml version="1.0" encoding="UTF-8"?>
<svg id="Layer_1" xmlns="http://www.w3.org/2000/svg" xmlns:xlink="http://www.w3.org/1999/xlink" version="1.1" viewBox="0 0 468 661">
  <!-- Generator: Adobe Illustrator 29.7.1, SVG Export Plug-In . SVG Version: 2.1.1 Build 8)  -->
  <defs>
    <style>
      .st0, .st1 {
        fill: none;
      }

      .st2 {
        fill: #231f20;
      }

      .st3 {
        stroke: #fff;
        stroke-width: 4px;
      }

      .st3, .st1 {
        stroke-miterlimit: 10;
      }

      .st3, .st4 {
        fill: #fff;
      }

      .st5 {
        fill: #fffdeb;
      }

      .st6 {
        fill: #faee52;
      }

      .st1 {
        stroke: #231f20;
        stroke-linecap: round;
        stroke-width: 14px;
      }

      .st7 {
        clip-path: url(#clippath-1);
      }

      .st8 {
        fill: #e2f4f9;
      }

      .st9 {
        clip-path: url(#clippath);
      }
    </style>
    <clipPath id="clippath">
      <circle class="st0" cx="231.8" cy="443.8" r="25.6"/>
    </clipPath>
    <clipPath id="clippath-1">
      <circle class="st0" cx="231.8" cy="443.8" r="19.4"/>
    </clipPath>
  </defs>
  <rect class="st6" width="468" height="661"/>
  <polyline class="st5" points="110.6 80.4 362.2 82.7 393.9 170.6 76.5 162.9"/>
  <path class="st5" d="M393.9,579.9c-75.2,57.5-298.6,33.6-323.5,15.5-8-5.8,6-432.5,6-432.5l317.5,7.7v409.3h0Z"/>
  <path d="M388.2,514.8H82.2V248.9c100.2,8.7,202.1,8.9,306,0v265.9Z"/>
  <path class="st2" d="M94.6,64.5c.4-4,10.9-13.4,10.9-13.4h258.4l16.6,18s.5,24.5-4.1,23.7-277,0-277,0l-8.9-19.9c-1.6-3.5.5-7.6,4.2-8.4h0Z"/>
  <path class="st1" d="M102.2,80.4s18.2,32.4-25.4,90.2c-1,39.2,0,424.1,0,424.1,0,0,241.4,52.2,317-14.8V170.6s-46.4-80.8-20.6-90.2"/>
  <path class="st1" d="M77.5,218.4s229,21.3,316.5,0"/>
  <path class="st1" d="M77.1,511.4s231.9,18.8,316.8-1.2"/>
  <path class="st4" d="M265.5,447.3c-1.4,14.6-6.6,27.5-13.6,36.5-7.1,9-16.1,14-25.3,13.1v.8c9.5,1,18.8-4.3,25.9-13.4,7.2-9.1,12.3-22.1,13.8-36.9h-.8c0,0,0,0,0,0ZM237.1,391.1c9.2.9,17,7.6,22.2,17.8,5.2,10.2,7.6,23.8,6.2,38.4h.8c1.5-14.7-1-28.5-6.3-38.8-5.2-10.3-13.3-17.3-22.9-18.2v.8c0,0,0,0,0,0ZM198.2,440.6c1.4-14.6,6.6-27.5,13.6-36.5,7.1-9,16.1-14,25.3-13.1v-.8c-9.5-1-18.8,4.3-25.9,13.4-7.2,9.1-12.3,22.1-13.8,36.9h.8c0,0,0,0,0,0ZM226.6,496.8c-9.2-.9-17-7.6-22.2-17.8-5.2-10.2-7.6-23.8-6.2-38.4h-.8c-1.5,14.7,1,28.5,6.3,38.8,5.2,10.3,13.3,17.3,22.9,18.2v-.8c0,0,0,0,0,0Z"/>
  <path class="st4" d="M245.8,474.4c-13.4,6.1-27.1,8.1-38.4,6.4s-20.1-6.9-23.9-15.4l-.8.4c4,8.8,13.1,14.2,24.6,15.9,11.5,1.7,25.3-.4,38.9-6.5l-.4-.8h0ZM280.3,421.7c3.8,8.4,1.9,18.6-4.3,28.1-6.2,9.6-16.8,18.5-30.2,24.6l.4.8c13.5-6.1,24.2-15.2,30.6-24.9,6.3-9.7,8.3-20.1,4.4-28.9l-.8.4h0ZM217.9,412.7c13.4-6.1,27.1-8.1,38.4-6.4s20.1,6.9,23.9,15.4l.8-.4c-4-8.8-13.1-14.2-24.6-15.9-11.5-1.7-25.3.4-38.9,6.5l.4.8h0ZM183.5,465.5c-3.8-8.4-1.9-18.6,4.3-28.1,6.2-9.6,16.8-18.5,30.2-24.6l-.4-.8c-13.5,6.1-24.2,15.2-30.6,24.9-6.3,9.7-8.3,20.1-4.3,28.9l.8-.4h0Z"/>
  <path class="st4" d="M251.2,416.8c11.9,8.5,20.3,19.2,24.5,29.7,4.2,10.5,3.9,20.4-1.2,27.6l2.1,1.5c5.9-8.1,5.9-19.1,1.5-30-4.4-10.9-13.2-22-25.4-30.8l-1.5,2h0ZM189.5,413.1c5.2-7.2,14.5-10.6,25.8-10,11.2.6,24.1,5.2,35.9,13.7l1.5-2c-12.2-8.7-25.5-13.5-37.3-14.2-11.8-.6-22.1,2.9-28,11l2.1,1.5h0ZM212.7,470.3c-11.9-8.5-20.3-19.2-24.5-29.7-4.2-10.5-3.9-20.4,1.2-27.6l-2.1-1.5c-5.8,8.1-5.9,19.1-1.5,30,4.4,10.9,13.2,22,25.4,30.8l1.5-2h0ZM274.4,474c-5.2,7.2-14.5,10.6-25.8,10-11.2-.6-24.1-5.2-35.9-13.7l-1.5,2c12.2,8.7,25.5,13.5,37.3,14.2,11.8.6,22.1-2.9,28-11l-2.1-1.5h0Z"/>
  <path class="st4" d="M264.6,446.6c-1.4,14.5-6.5,27.2-13.5,36-7,8.8-15.7,13.6-24.5,12.7l-.2,2.5c10,1,19.5-4.5,26.8-13.7,7.3-9.2,12.5-22.4,14-37.4l-2.5-.2h0ZM237,391.3c8.8.9,16.4,7.3,21.6,17.3,5.1,10,7.6,23.5,6.1,38l2.5.2c1.5-14.9-1-28.9-6.4-39.4-5.3-10.5-13.6-17.7-23.6-18.7l-.2,2.5h0ZM199,440.1c1.4-14.5,6.5-27.2,13.5-36,7-8.8,15.7-13.6,24.5-12.7l.2-2.5c-10-1-19.5,4.5-26.8,13.7-7.3,9.2-12.5,22.4-14,37.4l2.5.2h0ZM226.6,495.4c-8.8-.9-16.4-7.3-21.6-17.3-5.1-10-7.6-23.5-6.1-38l-2.5-.2c-1.5,14.9,1,28.9,6.4,39.4,5.3,10.5,13.6,17.7,23.6,18.7l.2-2.5h0Z"/>
  <path class="st4" d="M245.5,473.5c-13.3,6-26.8,8-37.9,6.4-11.1-1.6-19.6-6.8-23.3-14.9l-2.3,1c4.1,9.1,13.6,14.6,25.2,16.3,11.7,1.7,25.7-.4,39.3-6.6l-1-2.3ZM279.5,421.9c3.7,8.1,1.9,17.9-4.2,27.3-6.1,9.4-16.6,18.3-29.8,24.3l1,2.3c13.7-6.2,24.5-15.3,30.9-25.2,6.4-9.9,8.5-20.6,4.4-29.7l-2.3,1h0ZM218.3,413.4c13.3-6,26.8-8,37.9-6.4,11.1,1.6,19.6,6.8,23.3,14.9l2.3-1c-4.1-9.1-13.6-14.6-25.2-16.3-11.7-1.7-25.7.4-39.3,6.6l1,2.3ZM184.2,465c-3.7-8.1-1.9-17.9,4.2-27.3,6.1-9.4,16.6-18.3,29.8-24.3l-1-2.3c-13.7,6.2-24.5,15.3-30.9,25.2-6.4,9.9-8.5,20.6-4.4,29.7l2.3-1h0Z"/>
  <path class="st3" d="M251.5,416.9c11.8,8.5,20.3,19.2,24.5,29.7,4.2,10.5,4,20.6-1.3,28.1l.7.5c5.6-7.8,5.6-18.2,1.4-28.9-4.2-10.6-12.8-21.5-24.8-30.1l-.5.7h0ZM189.4,413.5c5.3-7.4,14.9-10.8,26.2-10.2,11.3.6,24.1,5.2,36,13.7l.5-.7c-11.9-8.6-25-13.2-36.4-13.9-11.4-.6-21.3,2.8-26.9,10.6l.7.5h0ZM212.6,471.2c-11.8-8.5-20.3-19.2-24.5-29.7-4.2-10.5-4-20.6,1.3-28.1l-.7-.5c-5.6,7.8-5.7,18.2-1.4,28.9,4.2,10.6,12.8,21.5,24.8,30.1l.5-.7h0ZM274.7,474.7c-5.3,7.4-14.9,10.8-26.2,10.2-11.3-.6-24.1-5.2-36-13.7l-.5.7c11.9,8.6,25,13.2,36.4,13.9,11.4.6,21.4-2.8,26.9-10.6l-.7-.5h0Z"/>
  <path class="st3" d="M265.5,446.7c-1.4,14.6-6.6,27.5-13.6,36.5-7.1,9-16.1,14-25.3,13.1v.8c9.5,1,18.8-4.3,25.9-13.4,7.2-9.1,12.3-22.1,13.8-36.9h-.8c0,0,0,0,0,0ZM237.1,390.5c9.2.9,17,7.6,22.2,17.8,5.2,10.2,7.6,23.8,6.2,38.4h.8c1.5-14.7-1-28.5-6.3-38.8-5.2-10.3-13.3-17.3-22.9-18.2v.8c0,0,0,0,0,0ZM198.1,440c1.4-14.6,6.6-27.5,13.6-36.5,7.1-9,16.1-14,25.3-13.1v-.8c-9.5-1-18.8,4.3-25.9,13.4-7.2,9.1-12.3,22.1-13.8,36.9h.8c0,0,0,0,0,0ZM226.6,496.2c-9.2-.9-17-7.6-22.2-17.8-5.2-10.2-7.6-23.8-6.2-38.4h-.8c-1.5,14.7,1,28.5,6.3,38.8,5.2,10.3,13.3,17.3,22.9,18.2v-.8c0,0,0,0,0,0Z"/>
  <path class="st3" d="M245.8,474.3c-13.4,6.1-27.1,8.1-38.4,6.4s-20.1-6.9-23.9-15.4l-.8.4c4,8.8,13.1,14.2,24.6,15.9,11.5,1.7,25.3-.4,38.9-6.5l-.4-.8h0ZM280.3,421.6c3.8,8.4,1.9,18.6-4.3,28.1-6.2,9.6-16.8,18.5-30.2,24.6l.4.8c13.5-6.1,24.2-15.2,30.6-24.9,6.3-9.7,8.3-20.1,4.4-28.9l-.8.4h0ZM218,412.7c13.4-6.1,27.1-8.1,38.4-6.4s20.1,6.9,23.9,15.4l.8-.4c-4-8.8-13.1-14.2-24.6-15.9-11.5-1.7-25.3.4-38.9,6.5l.4.8h0ZM183.5,465.4c-3.8-8.4-1.9-18.6,4.3-28.1,6.2-9.6,16.8-18.5,30.2-24.6l-.4-.8c-13.5,6.1-24.2,15.2-30.6,24.9-6.3,9.7-8.3,20.1-4.3,28.9l.8-.4h0Z"/>
  <circle class="st8" cx="231.8" cy="443.8" r="25.6" transform="translate(-68.9 43.5) rotate(-9.3)"/>
  <g>
    <circle cx="231.8" cy="443.8" r="25.6" transform="translate(-262 526.8) rotate(-72)"/>
    <g class="st9">
      <path d="M227.8,419.3c13.5-2.2,26.3,6.9,28.5,20.5l1.7-.3c-2.4-14.4-16-24.2-30.4-21.8l.3,1.7h0ZM207.4,447.8c-2.2-13.5,6.9-26.3,20.4-28.5l-.3-1.7c-14.4,2.4-24.2,16-21.8,30.4l1.7-.3h0ZM235.9,468.3c-13.5,2.2-26.3-6.9-28.5-20.5l-1.7.3c2.4,14.4,16,24.2,30.4,21.8l-.3-1.7h0ZM256.3,439.8c2.2,13.5-6.9,26.3-20.4,28.5l.3,1.7c14.4-2.4,24.2-16,21.8-30.4l-1.7.3h0Z"/>
    </g>
  </g>
  <circle class="st4" cx="231.8" cy="443.8" r="19.4"/>
  <g class="st7">
    <path class="st4" d="M228.8,425.5c10.1-1.7,19.6,5.2,21.3,15.3l1.7-.3c-1.8-11-12.2-18.5-23.2-16.7l.3,1.7h0ZM213.5,446.8c-1.7-10.1,5.2-19.6,15.3-21.3l-.3-1.7c-11,1.8-18.5,12.2-16.7,23.2l1.7-.3h0ZM234.9,462.1c-10.1,1.7-19.6-5.2-21.3-15.3l-1.7.3c1.8,11,12.2,18.5,23.2,16.7l-.3-1.7h0ZM250.1,440.8c1.7,10.1-5.2,19.6-15.3,21.3l.3,1.7c11-1.8,18.5-12.2,16.7-23.2l-1.7.3h0Z"/>
  </g>
  <circle class="st6" cx="232.6" cy="444" r="12.5" transform="translate(-68.9 43.6) rotate(-9.3)"/>
  <circle class="st6" cx="231.8" cy="443.2" r="12.5" transform="translate(-68.8 43.4) rotate(-9.3)"/>
  <path class="st6" d="M161.4,287.3v67.8h-16.8v-29.9l-17.1,17.2-17.1-17.2-16.8-16.8v-21.1h2.7l31.3,31.3,31.3-31.3h2.5,0ZM93.8,316.1l16.8,16.8v22.2h-16.8s0-39,0-39Z"/>
  <path class="st6" d="M195.4,311.4l9.8,16.2-19.1,31.5h-19.6l29-47.6h0ZM250.1,359.1h-19.6l-4.1-6.7-27.9-46.3,9.8-16.1,41.8,69.1Z"/>
  <path class="st6" d="M319.6,291.3l-37.4,37.4v16.8l-2.3-2.3-14.5-14.5-37.4-37.4h23.8l.4.4,21.6,21.6,22-22h23.8,0ZM265.3,336.4l16.8,16.8v5.9h-16.8v-22.7Z"/>
  <path class="st6" d="M357.4,333.9l11.9,11.9-1.2,1c-6,4.6-13.2,7.1-20.8,7.1s-17.6-3.5-24-10-10-14.9-10-24,2.5-14.8,7.1-20.8l1-1.2,11.9,11.9-.6.9c-1.7,2.7-2.6,5.8-2.6,9.1s1.8,8.8,5,12c3.3,3.3,7.5,5,12,5s6.4-.9,9.1-2.6l1-.5h0ZM371.3,296c6.4,6.4,10,14.9,10,24s-2.5,14.8-7.1,20.8l-1,1.2-11.9-11.9.6-.9c1.7-2.7,2.6-5.8,2.6-9.1s-1.8-8.8-5-12c-3.3-3.3-7.5-5-12-5s-6.4.9-9.1,2.6l-.9.6-11.9-11.9,1.2-1c6-4.6,13.2-7.1,20.8-7.1s17.6,3.6,24,10h-.1c0-.1,0,0,0,0Z"/>
  <path class="st1" d="M76.8,533.8s231.9,18.8,316.8-1.2"/>
</svg>