<?xml version="1.0" encoding="UTF-8"?>
<svg id="Layer_1" data-name="Layer 1" xmlns="http://www.w3.org/2000/svg" xmlns:xlink="http://www.w3.org/1999/xlink" viewBox="0 0 332.93 569.95">
  <defs>
    <style>
      .cls-1 {
        stroke: #231f20;
        stroke-linecap: round;
        stroke-width: 14px;
      }

      .cls-1, .cls-2 {
        fill: none;
      }

      .cls-1, .cls-3 {
        stroke-miterlimit: 10;
      }

      .cls-4 {
        clip-path: url(#clippath);
      }

      .cls-5, .cls-3 {
        fill: #fff;
      }

      .cls-6 {
        fill: #fffdeb;
      }

      .cls-7 {
        fill: #e2f4f9;
      }

      .cls-8 {
        fill: #faee52;
      }

      .cls-9 {
        fill: #231f20;
      }

      .cls-3 {
        stroke: #fff;
        stroke-width: 4px;
      }

      .cls-10 {
        clip-path: url(#clippath-1);
      }
    </style>
    <clipPath id="clippath">
      <circle cx="163.84" cy="392.71" r="25.64" transform="translate(-260.3 426.9) rotate(-71.96)"/>
    </clipPath>
    <clipPath id="clippath-1">
      <circle class="cls-2" cx="163.84" cy="392.71" r="19.39"/>
    </clipPath>
  </defs>
  <polyline class="cls-6" points="42.62 29.32 294.25 31.58 325.93 119.49 8.46 111.77"/>
  <path class="cls-6" d="M325.93,528.82c-75.22,57.53-298.61,33.56-323.47,15.49-7.96-5.78,6-432.54,6-432.54l317.47,7.72v409.33Z"/>
  <path d="M320.23,463.68H14.25V197.79c100.15,8.68,202.1,8.89,305.98,0V463.68Z"/>
  <path class="cls-9" d="M26.57,13.35c.43-3.97,10.88-13.35,10.88-13.35H295.84l16.56,17.98s.46,24.49-4.14,23.7-277.01-.02-277.01-.02l-8.91-19.87c-1.58-3.52,.47-7.61,4.24-8.45h0Z"/>
  <path class="cls-1" d="M34.24,29.32S52.45,61.71,8.88,119.49c-.96,39.15,0,424.1,0,424.1,0,0,241.42,52.15,317.04-14.78V119.49s-46.35-80.85-20.61-90.17"/>
  <path class="cls-1" d="M9.48,167.27s228.97,21.33,316.45,0"/>
  <path class="cls-1" d="M9.11,460.3s231.88,18.81,316.82-1.23"/>
  <path class="cls-5" d="M197.49,396.18c-1.45,14.65-6.57,27.52-13.63,36.48-7.07,8.96-16.06,13.97-25.27,13.06l-.08,.84c9.6,.95,18.84-4.28,26.02-13.38,7.18-9.1,12.34-22.13,13.81-36.91l-.84-.08Zm-28.41-56.22c9.22,.92,17.04,7.59,22.21,17.77,5.17,10.17,7.65,23.79,6.2,38.44l.84,.08c1.47-14.79-1.03-28.57-6.28-38.91-5.25-10.33-13.28-17.28-22.88-18.23l-.08,.84Zm-38.91,49.54c1.45-14.65,6.57-27.52,13.63-36.48,7.07-8.96,16.06-13.97,25.27-13.06l.08-.84c-9.6-.95-18.84,4.28-26.02,13.38-7.18,9.1-12.34,22.13-13.81,36.91l.84,.08Zm28.41,56.22c-9.22-.92-17.04-7.59-22.21-17.77-5.17-10.17-7.65-23.79-6.2-38.44l-.84-.08c-1.47,14.79,1.03,28.57,6.28,38.91,5.25,10.33,13.28,17.28,22.88,18.23l.08-.84Z"/>
  <path class="cls-5" d="M177.81,423.27c-13.41,6.07-27.11,8.07-38.41,6.43-11.3-1.64-20.13-6.92-23.95-15.36l-.77,.35c3.98,8.79,13.12,14.18,24.59,15.85,11.48,1.67,25.34-.38,38.87-6.5l-.35-.77Zm34.48-52.71c3.82,8.44,1.95,18.56-4.29,28.12-6.23,9.56-16.78,18.52-30.2,24.59l.35,.77c13.54-6.12,24.23-15.18,30.55-24.9,6.32-9.71,8.32-20.14,4.35-28.93l-.77,.35Zm-62.35-8.93c13.41-6.07,27.11-8.07,38.41-6.43,11.3,1.64,20.13,6.92,23.95,15.36l.77-.35c-3.98-8.79-13.12-14.18-24.59-15.85-11.48-1.67-25.34,.38-38.87,6.5l.35,.77Zm-34.48,52.71c-3.82-8.44-1.95-18.56,4.29-28.12,6.23-9.56,16.78-18.52,30.2-24.59l-.35-.77c-13.54,6.12-24.23,15.18-30.55,24.9-6.32,9.71-8.32,20.14-4.35,28.93l.77-.35Z"/>
  <path class="cls-5" d="M183.19,365.64c11.85,8.5,20.32,19.24,24.48,29.67,4.16,10.45,3.95,20.4-1.23,27.61l2.05,1.47c5.85-8.15,5.88-19.1,1.52-30.03-4.36-10.94-13.17-22.05-25.36-30.79l-1.47,2.05Zm-61.72-3.7c5.18-7.21,14.54-10.6,25.77-10,11.21,.6,24.1,5.19,35.95,13.7l1.47-2.05c-12.18-8.74-25.52-13.54-37.29-14.17-11.75-.63-22.11,2.9-27.96,11.05l2.05,1.47Zm23.25,57.29c-11.85-8.5-20.32-19.24-24.48-29.67-4.16-10.45-3.95-20.4,1.23-27.61l-2.05-1.47c-5.85,8.15-5.88,19.1-1.52,30.03,4.36,10.94,13.17,22.05,25.36,30.79l1.47-2.05Zm61.72,3.7c-5.18,7.21-14.54,10.6-25.77,10-11.21-.6-24.1-5.19-35.95-13.7l-1.47,2.05c12.18,8.74,25.52,13.54,37.29,14.17,11.75,.63,22.11-2.9,27.96-11.05l-2.05-1.47Z"/>
  <path class="cls-5" d="M196.62,395.47c-1.44,14.51-6.5,27.22-13.46,36.04-6.96,8.83-15.7,13.62-24.53,12.74l-.25,2.52c9.99,.99,19.48-4.46,26.76-13.69,7.3-9.25,12.51-22.43,13.99-37.35l-2.52-.25Zm-27.65-55.3c8.83,.88,16.45,7.29,21.55,17.32,5.08,10.01,7.55,23.47,6.11,37.98l2.52,.25c1.48-14.92-1.04-28.87-6.37-39.37-5.33-10.49-13.56-17.7-23.55-18.69l-.25,2.52Zm-37.99,48.78c1.44-14.51,6.5-27.22,13.46-36.04,6.96-8.83,15.7-13.62,24.53-12.74l.25-2.52c-9.99-.99-19.48,4.46-26.76,13.69-7.3,9.25-12.51,22.43-13.99,37.35l2.52,.25Zm27.65,55.3c-8.83-.88-16.45-7.29-21.55-17.32-5.08-10.01-7.55-23.47-6.11-37.98l-2.52-.25c-1.48,14.92,1.04,28.87,6.37,39.37,5.33,10.49,13.56,17.7,23.55,18.69l.25-2.52Z"/>
  <path class="cls-5" d="M177.47,422.41c-13.29,6.01-26.83,7.98-37.94,6.36-11.13-1.62-19.64-6.78-23.3-14.87l-2.3,1.04c4.14,9.14,13.6,14.64,25.24,16.33,11.66,1.69,25.68-.39,39.34-6.56l-1.04-2.3Zm34.06-51.6c3.66,8.09,1.91,17.89-4.22,27.32-6.13,9.41-16.55,18.27-29.84,24.28l1.04,2.3c13.66-6.18,24.49-15.33,30.91-25.21,6.42-9.86,8.54-20.59,4.41-29.74l-2.3,1.04Zm-61.24-8.51c13.29-6.01,26.83-7.98,37.94-6.36,11.13,1.62,19.64,6.78,23.3,14.87l2.3-1.04c-4.14-9.14-13.6-14.64-25.24-16.33-11.66-1.69-25.68,.39-39.34,6.56l1.04,2.3Zm-34.06,51.6c-3.66-8.09-1.91-17.89,4.22-27.32,6.13-9.41,16.55-18.27,29.84-24.28l-1.04-2.3c-13.66,6.18-24.49,15.33-30.91,25.21-6.42,9.86-8.54,20.59-4.41,29.74l2.3-1.04Z"/>
  <path class="cls-3" d="M183.54,365.8c11.82,8.48,20.31,19.22,24.48,29.69,4.18,10.48,4.03,20.65-1.31,28.08l.68,.49c5.56-7.75,5.65-18.24,1.41-28.88-4.24-10.65-12.84-21.5-24.77-30.06l-.49,.68Zm-62.15-3.46c5.34-7.44,14.92-10.83,26.19-10.23,11.26,.6,24.15,5.21,35.97,13.69l.49-.68c-11.93-8.56-24.96-13.23-36.41-13.85-11.44-.61-21.35,2.83-26.91,10.58l.68,.49Zm23.17,57.78c-11.82-8.48-20.31-19.22-24.48-29.69-4.18-10.48-4.03-20.65,1.31-28.08l-.68-.49c-5.56,7.75-5.65,18.24-1.41,28.88,4.24,10.65,12.84,21.5,24.77,30.06l.49-.68Zm62.15,3.46c-5.34,7.44-14.92,10.83-26.19,10.23-11.26-.6-24.15-5.21-35.97-13.69l-.49,.68c11.93,8.56,24.96,13.23,36.41,13.85,11.44,.61,21.35-2.83,26.91-10.58l-.68-.49Z"/>
  <path class="cls-3" d="M197.46,395.56c-1.45,14.65-6.57,27.52-13.63,36.48-7.07,8.96-16.06,13.97-25.27,13.06l-.08,.84c9.6,.95,18.84-4.28,26.02-13.38,7.18-9.1,12.34-22.13,13.81-36.91l-.84-.08Zm-28.41-56.22c9.22,.92,17.04,7.59,22.21,17.77,5.17,10.17,7.65,23.79,6.2,38.44l.84,.08c1.47-14.79-1.03-28.57-6.28-38.91-5.25-10.33-13.28-17.28-22.88-18.23l-.08,.84Zm-38.91,49.54c1.45-14.65,6.57-27.52,13.63-36.48,7.07-8.96,16.06-13.97,25.27-13.06l.08-.84c-9.6-.95-18.84,4.28-26.02,13.38-7.18,9.1-12.34,22.13-13.81,36.91l.84,.08Zm28.41,56.22c-9.22-.92-17.04-7.59-22.21-17.77-5.17-10.17-7.65-23.79-6.2-38.44l-.84-.08c-1.47,14.79,1.03,28.57,6.28,38.91,5.25,10.33,13.28,17.28,22.88,18.23l.08-.84Z"/>
  <path class="cls-3" d="M177.82,423.18c-13.41,6.07-27.11,8.07-38.41,6.43-11.3-1.64-20.13-6.92-23.95-15.36l-.77,.35c3.98,8.79,13.12,14.18,24.59,15.85,11.48,1.67,25.34-.38,38.87-6.5l-.35-.77Zm34.48-52.71c3.82,8.44,1.95,18.56-4.29,28.12-6.23,9.56-16.78,18.52-30.2,24.59l.35,.77c13.54-6.12,24.23-15.18,30.55-24.9,6.32-9.71,8.32-20.14,4.35-28.93l-.77,.35Zm-62.35-8.93c13.41-6.07,27.11-8.07,38.41-6.43,11.3,1.64,20.13,6.92,23.95,15.36l.77-.35c-3.98-8.79-13.12-14.18-24.59-15.85-11.48-1.67-25.34,.38-38.87,6.5l.35,.77Zm-34.48,52.71c-3.82-8.44-1.95-18.56,4.29-28.12,6.23-9.56,16.78-18.52,30.2-24.59l-.35-.77c-13.54,6.12-24.23,15.18-30.55,24.9-6.32,9.71-8.32,20.14-4.35,28.93l.77-.35Z"/>
  <circle class="cls-7" cx="163.84" cy="392.71" r="25.64" transform="translate(-61.51 31.76) rotate(-9.33)"/>
  <g>
    <circle cx="163.84" cy="392.71" r="25.64" transform="translate(-260.3 426.9) rotate(-71.96)"/>
    <g class="cls-4">
      <path d="M159.82,368.23c13.52-2.22,26.27,6.94,28.49,20.45l1.66-.27c-2.37-14.44-16-24.21-30.43-21.84l.27,1.66Zm-20.45,28.49c-2.22-13.52,6.94-26.27,20.45-28.49l-.27-1.66c-14.44,2.37-24.21,16-21.84,30.43l1.66-.27Zm28.49,20.45c-13.52,2.22-26.27-6.94-28.49-20.45l-1.66,.27c2.37,14.44,16,24.21,30.43,21.84l-.27-1.66Zm20.45-28.49c2.22,13.52-6.94,26.27-20.45,28.49l.27,1.66c14.44-2.37,24.21-16,21.84-30.43l-1.66,.27Z"/>
    </g>
  </g>
  <circle class="cls-5" cx="163.84" cy="392.71" r="19.39"/>
  <g class="cls-10">
    <path class="cls-5" d="M160.83,374.41c10.11-1.66,19.65,5.19,21.31,15.29l1.66-.27c-1.81-11.03-12.22-18.5-23.25-16.68l.27,1.66Zm-15.29,21.31c-1.66-10.11,5.19-19.65,15.29-21.31l-.27-1.66c-11.03,1.81-18.5,12.22-16.68,23.25l1.66-.27Zm21.31,15.29c-10.11,1.66-19.65-5.19-21.31-15.29l-1.66,.27c1.81,11.03,12.22,18.5,23.25,16.68l-.27-1.66Zm15.29-21.31c1.66,10.11-5.19,19.65-15.29,21.31l.27,1.66c11.03-1.81,18.5-12.22,16.68-23.25l-1.66,.27Z"/>
  </g>
  <circle class="cls-8" cx="164.65" cy="392.86" r="12.51" transform="translate(-61.52 31.89) rotate(-9.33)"/>
  <circle class="cls-8" cx="163.85" cy="392.06" r="12.51" transform="translate(-61.4 31.75) rotate(-9.33)"/>
  <path class="cls-8" d="M93.43,236.15v67.78h-16.77v-29.89l-17.07,17.17-17.07-17.17-16.77-16.77v-21.11h2.66l31.28,31.28,31.27-31.28h2.47Zm-67.58,28.81l16.77,16.77v22.2H25.85v-38.97Z"/>
  <path class="cls-8" d="M127.38,260.28l9.77,16.18-19.14,31.47h-19.63l29.01-47.65Zm54.76,47.75h-19.63l-4.05-6.71-27.92-46.27,9.77-16.08,41.83,69.06Z"/>
  <path class="cls-8" d="M251.58,240.15l-37.39,37.39v16.77l-2.27-2.27-14.5-14.5-37.39-37.39h23.78l.39,.4,21.61,21.61,22-22h23.78Zm-54.26,45.09l16.77,16.77v5.92h-16.77v-22.69Z"/>
  <path class="cls-8" d="M289.37,282.8l11.94,11.94-1.18,.99c-6.02,4.64-13.22,7.1-20.82,7.1-9.08,0-17.56-3.55-23.97-9.96s-9.96-14.9-9.96-23.97c0-7.6,2.47-14.8,7.1-20.82l.99-1.18,11.94,11.94-.59,.89c-1.68,2.66-2.57,5.82-2.57,9.08,0,4.54,1.78,8.78,5.03,12.04,3.26,3.26,7.5,5.03,12.04,5.03,3.26,0,6.41-.89,9.08-2.57l.99-.49Zm13.91-37.89c6.41,6.41,9.96,14.9,9.96,23.97,0,7.6-2.47,14.8-7.1,20.82l-.99,1.18-11.94-11.94,.59-.89c1.68-2.66,2.57-5.82,2.57-9.08,0-4.54-1.78-8.78-5.03-12.04-3.26-3.26-7.5-5.03-12.04-5.03-3.26,0-6.41,.89-9.08,2.57l-.89,.59-11.94-11.94,1.18-.99c6.02-4.64,13.22-7.1,20.82-7.1,9.08,0,17.56,3.55,23.97,9.96l-.1-.1Z"/>
  <path class="cls-1" d="M8.78,482.72s231.88,18.81,316.82-1.23"/>
</svg>